{
.appVersion = "983";
copyright = "Copyright © 2014, 2015 Adobe Systems Incorporated (http://www.adobe.com/).";
customParameters = (
{
name = description;
value = "Dr. Ken Lunde (project architect, glyph set definition & overall production); Masataka HATTORI 服部正貴 (production & ideograph elements)";
},
{
name = license;
value = "This Font Software is licensed under the SIL Open Font License, Version 1.1. This Font Software is distributed on an \"AS IS\" BASIS, WITHOUT WARRANTIES OR CONDITIONS OF ANY KIND, either express or implied. See the SIL Open Font License for the specific language, permissions and limitations governing your use of this Font Software.";
},
{
name = licenseURL;
value = "http://scripts.sil.org/OFL";
},
{
name = vendorID;
value = GOOG;
},
{
name = panose;
value = (
2,
11,
4,
0,
0,
0,
0,
0,
0,
0
);
},
{
name = unicodeRanges;
value = (
0,
1,
28,
29,
36,
42,
43,
44,
45,
48,
49,
50,
51,
52,
54,
55,
56,
57,
59,
61,
65,
66,
68
);
},
{
name = codePageRanges;
value = (
1252,
1250,
1251,
1258,
932,
936,
949,
1361
);
},
{
name = ROS;
value = "Adobe, Identity, 0";
},
{
name = glyphOrder;
value = (
.notdef,
space
);
}
);
date = "2015-06-15 05:06:24 +0000";
designer = "Ryoko NISHIZUKA 西塚涼子 (kana & ideographs); Paul D. Hunt (Latin, Greek & Cyrillic); Wenlong ZHANG 张文龙 (bopomofo); Sandoll Communication 산돌커뮤니케이션, Soo-young JANG 장수영 & Joo-yeon KANG 강주연 (hangul elements, letters & syllables)";
designerURL = "http://www.adobe.com/type/";
familyName = "Yaku Han JP";
fontMaster = (
{
alignmentZones = (
"{1900, 0}",
"{1100, 0}",
"{1100, 0}",
"{1100, 0}",
"{1100, 0}",
"{1100, 0}",
"{1100, 0}",
"{1100, 0}",
"{1100, 0}",
"{1100, 0}",
"{1100, 0}",
"{1100, 0}",
"{733, 13}",
"{733, 12}",
"{733, 12}",
"{732, 14}",
"{732, 13}",
"{730, 0}",
"{712, 13}",
"{712, 13}",
"{541, 13}",
"{540, 14}",
"{540, 14}",
"{539, 0}",
"{0, 0}",
"{0, -12}",
"{0, -13}",
"{0, -13}",
"{0, -13}",
"{0, -14}",
"{0, -14}",
"{-213, -12}",
"{-227, 0}",
"{-231, -20}",
"{-232, -19}",
"{-250, 0}",

glyphs = (
{
glyphname = .notdef;
lastChange = "2017-04-15 15:04:15 +0000";
layers = (
{
layerId = "E178EE56-1DA2-4CEB-82AE-488E906BEB31";
paths = (
{
closed = 1;
nodes = (
"100 -120 LINE",
"900 -120 LINE",
"900 880 LINE",
"100 880 LINE"
);
},
{
closed = 1;
nodes = (
"500 421 LINE",
"182 830 LINE",
"818 830 LINE"
);
},
{
closed = 1;
nodes = (
"532 380 LINE",
"850 789 LINE",
"850 -29 LINE"
);
},
{
closed = 1;
nodes = (
"182 -70 LINE",
"500 339 LINE",
"818 -70 LINE"
);
},
{
closed = 1;
nodes = (
"150 789 LINE",
"468 380 LINE",
"150 -29 LINE"
);
}
);
width = 1000;
}
);
note = .notdef;
},
{
glyphname = "comma-han";
lastChange = "2017-04-16 01:26:59 +0000";
layers = (
{
layerId = "E178EE56-1DA2-4CEB-82AE-488E906BEB31";
paths = (
{
closed = 1;
nodes = (
"333 -2 LINE",
"269 73 OFFCURVE",
"180 163 OFFCURVE",
"108 221 CURVE",
"50 169 LINE",
"121 112 OFFCURVE",
"207 27 OFFCURVE",
"272 -53 CURVE"
);
}
);
vertWidth = 1000;
width = 533;
}
);
note = cid01390;
unicode = 3001;
},
{
glyphname = ellipsis;
lastChange = "2017-04-15 15:04:15 +0000";
layers = (
{
layerId = "E178EE56-1DA2-4CEB-82AE-488E906BEB31";
paths = (
{
closed = 1;
nodes = (
"104 345 OFFCURVE",
"132 317 OFFCURVE",
"167 317 CURVE SMOOTH",
"202 317 OFFCURVE",
"230 345 OFFCURVE",
"230 380 CURVE SMOOTH",
"230 415 OFFCURVE",
"202 443 OFFCURVE",
"167 443 CURVE SMOOTH",
"132 443 OFFCURVE",
"104 415 OFFCURVE",
"104 380 CURVE SMOOTH"
);
},
{
closed = 1;
nodes = (
"437 345 OFFCURVE",
"465 317 OFFCURVE",
"500 317 CURVE SMOOTH",
"535 317 OFFCURVE",
"563 345 OFFCURVE",
"563 380 CURVE SMOOTH",
"563 415 OFFCURVE",
"535 443 OFFCURVE",
"500 443 CURVE SMOOTH",
"465 443 OFFCURVE",
"437 415 OFFCURVE",
"437 380 CURVE SMOOTH"
);
},
{
closed = 1;
nodes = (
"770 345 OFFCURVE",
"798 317 OFFCURVE",
"833 317 CURVE SMOOTH",
"868 317 OFFCURVE",
"896 345 OFFCURVE",
"896 380 CURVE SMOOTH",
"896 415 OFFCURVE",
"868 443 OFFCURVE",
"833 443 CURVE SMOOTH",
"798 443 OFFCURVE",
"770 415 OFFCURVE",
"770 380 CURVE SMOOTH"
);
}
);
width = 1000;
}
);
note = cid00728;
unicode = 2026;
},
{
glyphname = "period-han";
lastChange = "2017-04-16 01:27:14 +0000";
layers = (
{
layerId = "E178EE56-1DA2-4CEB-82AE-488E906BEB31";
paths = (
{
closed = 1;
nodes = (
"118 243 OFFCURVE",
"50 176 OFFCURVE",
"50 93 CURVE SMOOTH",
"50 9 OFFCURVE",
"118 -58 OFFCURVE",
"200 -58 CURVE SMOOTH",
"284 -58 OFFCURVE",
"351 9 OFFCURVE",
"351 93 CURVE SMOOTH",
"351 176 OFFCURVE",
"284 243 OFFCURVE",
"200 243 CURVE SMOOTH"
);
},
{
closed = 1;
nodes = (
"144 -11 OFFCURVE",
"97 35 OFFCURVE",
"97 93 CURVE SMOOTH",
"97 149 OFFCURVE",
"144 196 OFFCURVE",
"200 196 CURVE SMOOTH",
"258 196 OFFCURVE",
"304 149 OFFCURVE",
"304 93 CURVE SMOOTH",
"304 35 OFFCURVE",
"258 -11 OFFCURVE",
"200 -11 CURVE SMOOTH"
);
}
);
vertWidth = 1000;
width = 751;
}
);
note = cid01391;
unicode = 3002;
},
{
glyphname = colon.full;
lastChange = "2017-04-16 01:14:52 +0000";
layers = (
{
layerId = "E178EE56-1DA2-4CEB-82AE-488E906BEB31";
paths = (
{
closed = 1;
nodes = (
"260 549 OFFCURVE",
"294 577 OFFCURVE",
"294 620 CURVE SMOOTH",
"294 665 OFFCURVE",
"260 692 OFFCURVE",
"222 692 CURVE SMOOTH",
"184 692 OFFCURVE",
"150 665 OFFCURVE",
"150 620 CURVE SMOOTH",
"150 577 OFFCURVE",
"184 549 OFFCURVE",
"222 549 CURVE SMOOTH"
);
},
{
closed = 1;
nodes = (
"260 57 OFFCURVE",
"294 85 OFFCURVE",
"294 129 CURVE SMOOTH",
"294 173 OFFCURVE",
"260 201 OFFCURVE",
"222 201 CURVE SMOOTH",
"184 201 OFFCURVE",
"150 173 OFFCURVE",
"150 129 CURVE SMOOTH",
"150 85 OFFCURVE",
"184 57 OFFCURVE",
"222 57 CURVE SMOOTH"
);
}
);
vertWidth = 1000;
width = 444;
}
);
note = cid59017;
unicode = FF1A;
},
{
glyphname = exclam.full;
lastChange = "2017-04-16 01:14:52 +0000";
layers = (
{
layerId = "E178EE56-1DA2-4CEB-82AE-488E906BEB31";
paths = (
{
closed = 1;
nodes = (
"197 239 LINE",
"256 239 LINE",
"278 635 LINE",
"280 748 LINE",
"172 748 LINE",
"174 635 LINE"
);
},
{
closed = 1;
nodes = (
"267 -4 OFFCURVE",
"302 24 OFFCURVE",
"302 71 CURVE SMOOTH",
"302 116 OFFCURVE",
"267 145 OFFCURVE",
"226 145 CURVE SMOOTH",
"185 145 OFFCURVE",
"150 116 OFFCURVE",
"150 71 CURVE SMOOTH",
"150 24 OFFCURVE",
"185 -4 OFFCURVE",
"226 -4 CURVE SMOOTH"
);
}
);
width = 452;
}
);
note = cid58992;
unicode = FF01;
},
{
glyphname = question.full;
lastChange = "2017-04-16 01:14:52 +0000";
layers = (
{
layerId = "E178EE56-1DA2-4CEB-82AE-488E906BEB31";
paths = (
{
closed = 1;
nodes = (
"415 239 LINE",
"387 391 OFFCURVE",
"629 424 OFFCURVE",
"629 576 CURVE SMOOTH",
"629 688 OFFCURVE",
"541 761 OFFCURVE",
"401 761 CURVE SMOOTH",
"292 761 OFFCURVE",
"216 715 OFFCURVE",
"150 646 CURVE",
"198 601 LINE",
"257 663 OFFCURVE",
"323 694 OFFCURVE",
"393 694 CURVE SMOOTH",
"499 694 OFFCURVE",
"549 641 OFFCURVE",
"549 570 CURVE SMOOTH",
"549 453 OFFCURVE",
"309 407 OFFCURVE",
"342 239 CURVE"
);
},
{
closed = 1;
nodes = (
"304 25 OFFCURVE",
"339 -4 OFFCURVE",
"380 -4 CURVE SMOOTH",
"421 -4 OFFCURVE",
"456 25 OFFCURVE",
"456 71 CURVE SMOOTH",
"456 117 OFFCURVE",
"421 145 OFFCURVE",
"380 145 CURVE SMOOTH",
"339 145 OFFCURVE",
"304 117 OFFCURVE",
"304 71 CURVE SMOOTH"
);
}
);
width = 779;
}
);
note = cid59022;
unicode = FF1F;
},
{
glyphname = semicolon.full;
lastChange = "2017-04-16 01:14:52 +0000";
layers = (
{
layerId = "E178EE56-1DA2-4CEB-82AE-488E906BEB31";
paths = (
{
closed = 1;
nodes = (
"290 549 OFFCURVE",
"324 577 OFFCURVE",
"324 620 CURVE SMOOTH",
"324 665 OFFCURVE",
"290 692 OFFCURVE",
"252 692 CURVE SMOOTH",
"214 692 OFFCURVE",
"180 665 OFFCURVE",
"180 620 CURVE SMOOTH",
"180 577 OFFCURVE",
"214 549 OFFCURVE",
"252 549 CURVE SMOOTH"
);
},
{
closed = 1;
nodes = (
"171 -98 LINE",
"274 -57 OFFCURVE",
"340 25 OFFCURVE",
"340 140 CURVE SMOOTH",
"340 211 OFFCURVE",
"311 256 OFFCURVE",
"258 256 CURVE SMOOTH",
"220 256 OFFCURVE",
"186 233 OFFCURVE",
"186 188 CURVE SMOOTH",
"186 142 OFFCURVE",
"218 119 OFFCURVE",
"257 119 CURVE SMOOTH",
"263 119 OFFCURVE",
"270 120 OFFCURVE",
"276 121 CURVE",
"274 41 OFFCURVE",
"231 -13 OFFCURVE",
"150 -50 CURVE"
);
}
);
vertWidth = 1000;
width = 490;
}
);
note = cid59018;
unicode = FF1B;
},
{
glyphname = anglebracketleft;
lastChange = "2017-04-16 01:16:10 +0000";
layers = (
{
layerId = "E178EE56-1DA2-4CEB-82AE-488E906BEB31";
paths = (
{
closed = 1;
nodes = (
"272 380 LINE",
"555 819 LINE",
"499 845 LINE",
"200 380 LINE",
"499 -85 LINE",
"555 -59 LINE"
);
}
);
vertWidth = 1000;
width = 585;
}
);
note = cid01397;
unicode = 3008;
},
{
glyphname = anglebracketright;
lastChange = "2017-04-16 01:16:21 +0000";
layers = (
{
layerId = "E178EE56-1DA2-4CEB-82AE-488E906BEB31";
paths = (
{
closed = 1;
nodes = (
"86 -85 LINE",
"385 380 LINE",
"86 845 LINE",
"30 819 LINE",
"313 380 LINE",
"30 -59 LINE"
);
}
);
vertWidth = 1000;
width = 585;
}
);
note = cid01398;
unicode = 3009;
},
{
glyphname = blacklenticularbracketleft;
lastChange = "2017-04-16 01:16:10 +0000";
layers = (
{
layerId = "E178EE56-1DA2-4CEB-82AE-488E906BEB31";
paths = (
{
closed = 1;
nodes = (
"200 845 LINE",
"200 -85 LINE",
"498 -85 LINE",
"498 -80 LINE",
"389 12 OFFCURVE",
"300 178 OFFCURVE",
"300 380 CURVE SMOOTH",
"300 582 OFFCURVE",
"389 748 OFFCURVE",
"498 840 CURVE",
"498 845 LINE"
);
}
);
vertWidth = 1000;
width = 528;
}
);
note = cid01405;
unicode = 3010;
},
{
glyphname = blacklenticularbracketright;
lastChange = "2017-04-16 01:16:21 +0000";
layers = (
{
layerId = "E178EE56-1DA2-4CEB-82AE-488E906BEB31";
paths = (
{
closed = 1;
nodes = (
"328 845 LINE",
"30 845 LINE",
"30 840 LINE",
"139 748 OFFCURVE",
"228 582 OFFCURVE",
"228 380 CURVE SMOOTH",
"228 178 OFFCURVE",
"139 12 OFFCURVE",
"30 -80 CURVE",
"30 -85 LINE",
"328 -85 LINE"
);
}
);
vertWidth = 1000;
width = 528;
}
);
note = cid01406;
unicode = 3011;
},
{
glyphname = braceleft.full;
lastChange = "2017-04-16 01:16:10 +0000";
layers = (
{
layerId = "E178EE56-1DA2-4CEB-82AE-488E906BEB31";
paths = (
{
closed = 1;
nodes = (
"457 -95 LINE",
"457 -48 LINE",
"424 -48 LINE SMOOTH",
"363 -48 OFFCURVE",
"347 -16 OFFCURVE",
"347 56 CURVE SMOOTH",
"347 124 OFFCURVE",
"353 183 OFFCURVE",
"353 259 CURVE SMOOTH",
"353 329 OFFCURVE",
"337 365 OFFCURVE",
"289 378 CURVE",
"289 382 LINE",
"337 395 OFFCURVE",
"353 431 OFFCURVE",
"353 501 CURVE SMOOTH",
"353 577 OFFCURVE",
"347 636 OFFCURVE",
"347 704 CURVE SMOOTH",
"347 777 OFFCURVE",
"363 808 OFFCURVE",
"424 808 CURVE SMOOTH",
"457 808 LINE",
"457 855 LINE",
"411 855 LINE SMOOTH",
"326 855 OFFCURVE",
"284 822 OFFCURVE",
"284 709 CURVE SMOOTH",
"284 629 OFFCURVE",
"294 568 OFFCURVE",
"294 492 CURVE SMOOTH",
"294 449 OFFCURVE",
"275 406 OFFCURVE",
"200 406 CURVE",
"200 355 LINE",
"275 354 OFFCURVE",
"294 311 OFFCURVE",
"294 269 CURVE SMOOTH",
"294 194 OFFCURVE",
"284 132 OFFCURVE",
"284 51 CURVE SMOOTH",
"284 -62 OFFCURVE",
"326 -95 OFFCURVE",
"411 -95 CURVE SMOOTH"
);
}
);
vertWidth = 1000;
width = 487;
}
);
note = cid59082;
unicode = FF5B;
},
{
glyphname = braceright.full;
lastChange = "2017-04-16 01:16:21 +0000";
layers = (
{
layerId = "E178EE56-1DA2-4CEB-82AE-488E906BEB31";
paths = (
{
closed = 1;
nodes = (
"76 -95 LINE SMOOTH",
"161 -95 OFFCURVE",
"203 -62 OFFCURVE",
"203 51 CURVE SMOOTH",
"203 132 OFFCURVE",
"193 194 OFFCURVE",
"193 269 CURVE SMOOTH",
"193 311 OFFCURVE",
"212 354 OFFCURVE",
"287 355 CURVE",
"287 406 LINE",
"212 406 OFFCURVE",
"193 449 OFFCURVE",
"193 492 CURVE SMOOTH",
"193 568 OFFCURVE",
"203 629 OFFCURVE",
"203 709 CURVE SMOOTH",
"203 822 OFFCURVE",
"161 855 OFFCURVE",
"76 855 CURVE SMOOTH",
"30 855 LINE",
"30 808 LINE",
"63 808 LINE SMOOTH",
"124 808 OFFCURVE",
"140 777 OFFCURVE",
"140 704 CURVE SMOOTH",
"140 636 OFFCURVE",
"134 577 OFFCURVE",
"134 501 CURVE SMOOTH",
"134 431 OFFCURVE",
"150 395 OFFCURVE",
"198 382 CURVE",
"198 378 LINE",
"150 365 OFFCURVE",
"134 329 OFFCURVE",
"134 259 CURVE SMOOTH",
"134 183 OFFCURVE",
"140 124 OFFCURVE",
"140 56 CURVE SMOOTH",
"140 -16 OFFCURVE",
"124 -48 OFFCURVE",
"63 -48 CURVE SMOOTH",
"30 -48 LINE",
"30 -95 LINE"
);
}
);
vertWidth = 1000;
width = 487;
}
);
note = cid59084;
unicode = FF5D;
},
{
glyphname = cornerbracketleft;
lastChange = "2017-04-16 01:16:10 +0000";
layers = (
{
layerId = "E178EE56-1DA2-4CEB-82AE-488E906BEB31";
paths = (
{
closed = 1;
nodes = (
"200 197 LINE",
"266 197 LINE",
"266 783 LINE",
"513 783 LINE",
"513 845 LINE",
"200 845 LINE"
);
}
);
vertWidth = 1000;
width = 543;
}
);
note = cid01401;
unicode = 300C;
},
{
glyphname = cornerbracketright;
lastChange = "2017-04-16 01:16:21 +0000";
layers = (
{
layerId = "E178EE56-1DA2-4CEB-82AE-488E906BEB31";
paths = (
{
closed = 1;
nodes = (
"343 563 LINE",
"277 563 LINE",
"277 -23 LINE",
"30 -23 LINE",
"30 -85 LINE",
"343 -85 LINE"
);
}
);
vertWidth = 1000;
width = 543;
}
);
note = cid01402;
unicode = 300D;
},
{
glyphname = dblanglebracketleft;
lastChange = "2017-04-16 01:16:10 +0000";
layers = (
{
layerId = "E178EE56-1DA2-4CEB-82AE-488E906BEB31";
paths = (
{
closed = 1;
nodes = (
"255 380 LINE",
"475 828 LINE",
"426 845 LINE",
"200 380 LINE",
"426 -85 LINE",
"475 -68 LINE"
);
},
{
closed = 1;
nodes = (
"410 380 LINE",
"630 828 LINE",
"581 845 LINE",
"355 380 LINE",
"581 -85 LINE",
"630 -68 LINE"
);
}
);
vertWidth = 1000;
width = 660;
}
);
note = cid01399;
unicode = 300A;
},
{
glyphname = dblanglebracketright;
lastChange = "2017-04-16 01:16:21 +0000";
layers = (
{
layerId = "E178EE56-1DA2-4CEB-82AE-488E906BEB31";
paths = (
{
closed = 1;
nodes = (
"234 -85 LINE",
"460 380 LINE",
"234 845 LINE",
"185 828 LINE",
"405 380 LINE",
"185 -68 LINE"
);
},
{
closed = 1;
nodes = (
"79 -85 LINE",
"305 380 LINE",
"79 845 LINE",
"30 828 LINE",
"250 380 LINE",
"30 -68 LINE"
);
}
);
vertWidth = 1000;
width = 660;
}
);
note = cid01400;
unicode = 300B;
},
{
glyphname = tortoiseshellbracketleft;
lastChange = "2017-04-16 01:16:10 +0000";
layers = (
{
layerId = "E178EE56-1DA2-4CEB-82AE-488E906BEB31";
paths = (
{
closed = 1;
nodes = (
"413 -96 LINE",
"443 -49 LINE",
"263 65 LINE",
"263 695 LINE",
"443 809 LINE",
"413 856 LINE",
"200 719 LINE",
"200 41 LINE"
);
}
);
vertWidth = 1000;
width = 473;
}
);
note = cid01409;
unicode = 3014;
},
{
glyphname = tortoiseshellbracketright;
lastChange = "2017-04-16 01:16:21 +0000";
layers = (
{
layerId = "E178EE56-1DA2-4CEB-82AE-488E906BEB31";
paths = (
{
closed = 1;
nodes = (
"273 41 LINE",
"273 719 LINE",
"60 856 LINE",
"30 809 LINE",
"210 695 LINE",
"210 65 LINE",
"30 -49 LINE",
"60 -96 LINE"
);
}
);
vertWidth = 1000;
width = 473;
}
);
note = cid01410;
unicode = 3015;
},
{
glyphname = whitecornerbracketleft;
lastChange = "2017-04-16 01:16:10 +0000";
layers = (
{
layerId = "E178EE56-1DA2-4CEB-82AE-488E906BEB31";
paths = (
{
closed = 1;
nodes = (
"566 693 LINE",
"566 845 LINE",
"200 845 LINE",
"200 182 LINE",
"367 182 LINE",
"367 693 LINE"
);
},
{
closed = 1;
nodes = (
"535 814 LINE",
"535 724 LINE",
"336 724 LINE",
"336 213 LINE",
"231 213 LINE",
"231 814 LINE"
);
}
);
vertWidth = 1000;
width = 596;
}
);
note = cid01403;
unicode = 300E;
},
{
glyphname = whitecornerbracketright;
lastChange = "2017-04-16 01:16:21 +0000";
layers = (
{
layerId = "E178EE56-1DA2-4CEB-82AE-488E906BEB31";
paths = (
{
closed = 1;
nodes = (
"30 67 LINE",
"30 -85 LINE",
"396 -85 LINE",
"396 578 LINE",
"229 578 LINE",
"229 67 LINE"
);
},
{
closed = 1;
nodes = (
"61 -54 LINE",
"61 36 LINE",
"260 36 LINE",
"260 547 LINE",
"365 547 LINE",
"365 -54 LINE"
);
}
);
vertWidth = 1000;
width = 596;
}
);
note = cid01404;
unicode = 300F;
},
{
glyphname = whitelenticularbracketleft;
lastChange = "2017-04-16 01:16:10 +0000";
layers = (
{
layerId = "E178EE56-1DA2-4CEB-82AE-488E906BEB31";
paths = (
{
closed = 1;
nodes = (
"543 -68 LINE",
"385 4 OFFCURVE",
"280 159 OFFCURVE",
"280 380 CURVE SMOOTH",
"280 601 OFFCURVE",
"385 756 OFFCURVE",
"543 828 CURVE",
"543 845 LINE",
"200 845 LINE",
"200 -85 LINE",
"543 -85 LINE"
);
},
{
closed = 1;
nodes = (
"223 -62 LINE",
"223 822 LINE",
"481 822 LINE",
"386 763 OFFCURVE",
"257 631 OFFCURVE",
"257 380 CURVE SMOOTH",
"257 129 OFFCURVE",
"386 -3 OFFCURVE",
"481 -62 CURVE"
);
}
);
vertWidth = 1000;
width = 573;
}
);
note = cid01411;
unicode = 3016;
},
{
glyphname = whitelenticularbracketright;
lastChange = "2017-04-16 01:16:21 +0000";
layers = (
{
layerId = "E178EE56-1DA2-4CEB-82AE-488E906BEB31";
paths = (
{
closed = 1;
nodes = (
"30 -85 LINE",
"373 -85 LINE",
"373 845 LINE",
"30 845 LINE",
"30 828 LINE",
"188 756 OFFCURVE",
"293 601 OFFCURVE",
"293 380 CURVE SMOOTH",
"293 159 OFFCURVE",
"188 4 OFFCURVE",
"30 -68 CURVE"
);
},
{
closed = 1;
nodes = (
"92 -62 LINE",
"187 -3 OFFCURVE",
"316 129 OFFCURVE",
"316 380 CURVE SMOOTH",
"316 631 OFFCURVE",
"187 763 OFFCURVE",
"92 822 CURVE",
"350 822 LINE",
"350 -62 LINE"
);
}
);
vertWidth = 1000;
width = 573;
}
);
note = cid01412;
unicode = 3017;
},
{
glyphname = bracketleft.full;
lastChange = "2017-04-16 01:16:10 +0000";
layers = (
{
layerId = "E178EE56-1DA2-4CEB-82AE-488E906BEB31";
paths = (
{
closed = 1;
nodes = (
"200 -85 LINE",
"454 -85 LINE",
"454 -37 LINE",
"263 -37 LINE",
"263 797 LINE",
"454 797 LINE",
"454 845 LINE",
"200 845 LINE"
);
}
);
vertWidth = 1000;
width = 484;
}
);
note = cid59050;
unicode = FF3B;
},
{
glyphname = bracketright.full;
lastChange = "2017-04-16 01:16:21 +0000";
layers = (
{
layerId = "E178EE56-1DA2-4CEB-82AE-488E906BEB31";
paths = (
{
closed = 1;
nodes = (
"284 845 LINE",
"30 845 LINE",
"30 797 LINE",
"221 797 LINE",
"221 -37 LINE",
"30 -37 LINE",
"30 -85 LINE",
"284 -85 LINE"
);
}
);
vertWidth = 1000;
width = 484;
}
);
note = cid59052;
unicode = FF3D;
},
{
glyphname = parenleft.full;
lastChange = "2017-04-16 01:16:10 +0000";
layers = (
{
layerId = "E178EE56-1DA2-4CEB-82AE-488E906BEB31";
paths = (
{
closed = 1;
nodes = (
"453 -66 LINE",
"335 55 OFFCURVE",
"265 204 OFFCURVE",
"265 380 CURVE SMOOTH",
"265 556 OFFCURVE",
"335 705 OFFCURVE",
"453 826 CURVE",
"399 855 LINE",
"277 730 OFFCURVE",
"200 572 OFFCURVE",
"200 380 CURVE SMOOTH",
"200 188 OFFCURVE",
"277 30 OFFCURVE",
"399 -95 CURVE"
);
}
);
vertWidth = 1000;
width = 483;
}
);
note = cid58999;
unicode = FF08;
},
{
glyphname = parenright.full;
lastChange = "2017-04-16 01:16:21 +0000";
layers = (
{
layerId = "E178EE56-1DA2-4CEB-82AE-488E906BEB31";
paths = (
{
closed = 1;
nodes = (
"30 826 LINE",
"148 705 OFFCURVE",
"218 556 OFFCURVE",
"218 380 CURVE SMOOTH",
"218 204 OFFCURVE",
"148 55 OFFCURVE",
"30 -66 CURVE",
"84 -95 LINE",
"206 30 OFFCURVE",
"283 188 OFFCURVE",
"283 380 CURVE SMOOTH",
"283 572 OFFCURVE",
"206 730 OFFCURVE",
"84 855 CURVE"
);
}
);
vertWidth = 1000;
width = 483;
}
);
note = cid59000;
unicode = FF09;
},
{
glyphname = "dot-kata";
lastChange = "2017-04-16 01:14:52 +0000";
layers = (
{
layerId = "E178EE56-1DA2-4CEB-82AE-488E906BEB31";
paths = (
{
closed = 1;
nodes = (
"150 323 OFFCURVE",
"196 277 OFFCURVE",
"253 277 CURVE SMOOTH",
"310 277 OFFCURVE",
"356 323 OFFCURVE",
"356 380 CURVE SMOOTH",
"356 437 OFFCURVE",
"310 483 OFFCURVE",
"253 483 CURVE SMOOTH",
"196 483 OFFCURVE",
"150 437 OFFCURVE",
"150 380 CURVE SMOOTH"
);
}
